HIERARCHY
ROOT hip
{
  OFFSET 0 0 0
  CHANNELS 6 Xposition Yposition Zposition Zrotation Yrotation Xrotation
  JOINT abdomen
  {
    OFFSET 0 20.6881 -0.73152
    CHANNELS 3 Zrotation Xrotation Yrotation
    JOINT chest
    {
      OFFSET 0 11.7043 -0.48768
      CHANNELS 3 Zrotation Xrotation Yrotation
      JOINT neck
      {
        OFFSET 0 22.1894 -2.19456
        CHANNELS 3 Zrotation Xrotation Yrotation
        JOINT head
        {
          OFFSET -0.24384 7.07133 1.2192
          CHANNELS 3 Zrotation Xrotation Yrotation
          JOINT leftEye
          {
            OFFSET 4.14528 8.04674 8.04672
            CHANNELS 3 Zrotation Xrotation Yrotation
            End Site
            {
              OFFSET 1 0 0
            }
          }
          JOINT rightEye
          {
            OFFSET -3.6576 8.04674 8.04672
            CHANNELS 3 Zrotation Xrotation Yrotation
            End Site
            {
              OFFSET 1 0 0
            }
          }
        }
      }
      JOINT rCollar
      {
        OFFSET -2.68224 19.2634 -4.8768
        CHANNELS 3 Zrotation Xrotation Yrotation
        JOINT rShldr
        {
          OFFSET -8.77824 -1.95073 1.46304
          CHANNELS 3 Zrotation Xrotation Yrotation
          JOINT rForeArm
          {
            OFFSET -28.1742 -1.7115 0.48768
            CHANNELS 3 Zrotation Xrotation Yrotation
            JOINT rHand
            {
              OFFSET -22.5879 0.773209 7.07136
              CHANNELS 3 Zrotation Xrotation Yrotation
              JOINT rThumb1
              {
                OFFSET -1.2192 -0.487915 3.41376
                CHANNELS 3 Zrotation Xrotation Yrotation
                JOINT rThumb2
                {
                  OFFSET -3.37035 -0.52449 3.41376
                  CHANNELS 3 Zrotation Xrotation Yrotation
                  End Site
                  {
                    OFFSET -1.78271 -1.18214 1.43049
                  }
                }
              }
              JOINT rIndex1
              {
                OFFSET -7.75947 0.938293 5.60832
                CHANNELS 3 Zrotation Xrotation Yrotation
                JOINT rIndex2
                {
                  OFFSET -2.54057 -0.884171 1.56538
                  CHANNELS 3 Zrotation Xrotation Yrotation
                  End Site
                  {
                    OFFSET -1.62519 -0.234802 1.16502
                  }
                }
              }
              JOINT rMid1
              {
                OFFSET -8.24714 1.18213 3.41376
                CHANNELS 3 Zrotation Xrotation Yrotation
                JOINT rMid2
                {
                  OFFSET -3.10165 -0.590103 1.0647
                  CHANNELS 3 Zrotation Xrotation Yrotation
                  End Site
                  {
                    OFFSET -2.48547 -0.328903 0.83742
                  }
                }
              }
              JOINT rRing1
              {
                OFFSET -8.82822 0.546677 1.51678
                CHANNELS 3 Zrotation Xrotation Yrotation
                JOINT rRing2
                {
                  OFFSET -2.60934 -0.819778 -0.0198488
                  CHANNELS 3 Zrotation Xrotation Yrotation
                  End Site
                  {
                    OFFSET -2.33842 -0.294052 0.168128
                  }
                }
              }
              JOINT rPinky1
              {
                OFFSET -8.27202 -0.0477905 -0.4584
                CHANNELS 3 Zrotation Xrotation Yrotation
                JOINT rPinky2
                {
                  OFFSET -1.82734 -0.647385 -0.700984
                  CHANNELS 3 Zrotation Xrotation Yrotation
                  End Site
                  {
                    OFFSET -1.69225 -0.51767 -0.607171
                  }
                }
              }
            }
          }
        }
      }
      JOINT lCollar
      {
        OFFSET 2.68224 19.2634 -4.8768
        CHANNELS 3 Zrotation Xrotation Yrotation
        JOINT lShldr
        {
          OFFSET 8.77824 -1.95073 1.46304
          CHANNELS 3 Zrotation Xrotation Yrotation
          JOINT lForeArm
          {
            OFFSET 28.1742 -1.7115 0.48768
            CHANNELS 3 Zrotation Xrotation Yrotation
            JOINT lHand
            {
              OFFSET 22.5879 0.773209 7.07136
              CHANNELS 3 Zrotation Xrotation Yrotation
              JOINT lThumb1
              {
                OFFSET 1.2192 -0.487915 3.41376
                CHANNELS 3 Zrotation Xrotation Yrotation
                JOINT lThumb2
                {
                  OFFSET 3.37035 -0.52449 3.41376
                  CHANNELS 3 Zrotation Xrotation Yrotation
                  End Site
                  {
                    OFFSET 1.78271 -1.18214 1.43049
                  }
                }
              }
              JOINT lIndex1
              {
                OFFSET 7.75947 0.938293 5.60832
                CHANNELS 3 Zrotation Xrotation Yrotation
                JOINT lIndex2
                {
                  OFFSET 2.54057 -0.884171 1.56538
                  CHANNELS 3 Zrotation Xrotation Yrotation
                  End Site
                  {
                    OFFSET 1.62519 -0.234802 1.16502
                  }
                }
              }
              JOINT lMid1
              {
                OFFSET 8.24714 1.18213 3.41376
                CHANNELS 3 Zrotation Xrotation Yrotation
                JOINT lMid2
                {
                  OFFSET 3.10165 -0.590103 1.0647
                  CHANNELS 3 Zrotation Xrotation Yrotation
                  End Site
                  {
                    OFFSET 2.48547 -0.328903 0.83742
                  }
                }
              }
              JOINT lRing1
              {
                OFFSET 8.82822 0.546677 1.51678
                CHANNELS 3 Zrotation Xrotation Yrotation
                JOINT lRing2
                {
                  OFFSET 2.60934 -0.819778 -0.0198488
                  CHANNELS 3 Zrotation Xrotation Yrotation
                  End Site
                  {
                    OFFSET 2.33842 -0.294052 0.168128
                  }
                }
              }
              JOINT lPinky1
              {
                OFFSET 8.27202 -0.0477905 -0.4584
                CHANNELS 3 Zrotation Xrotation Yrotation
                JOINT lPinky2
                {
                  OFFSET 1.82734 -0.647385 -0.700984
                  CHANNELS 3 Zrotation Xrotation Yrotation
                  End Site
                  {
                    OFFSET 1.69225 -0.51767 -0.607171
                  }
                }
              }
            }
          }
        }
      }
    }
  }
  JOINT rButtock
  {
    OFFSET -8.77824 4.35084 1.2192
    CHANNELS 3 Zrotation Xrotation Yrotation
    JOINT rThigh
    {
      OFFSET 0 -1.70687 -2.19456
      CHANNELS 3 Zrotation Xrotation Yrotation
      JOINT rShin
      {
        OFFSET 0 -36.8199 0.73152
        CHANNELS 3 Zrotation Xrotation Yrotation
        JOINT rFoot
        {
          OFFSET 0.73152 -45.1104 -5.12064
          CHANNELS 3 Zrotation Xrotation Yrotation
          End Site
          {
            OFFSET -1.1221 -3.69964 12.103
          }
        }
      }
    }
  }
  JOINT lButtock
  {
    OFFSET 8.77824 4.35084 1.2192
    CHANNELS 3 Zrotation Xrotation Yrotation
    JOINT lThigh
    {
      OFFSET 0 -1.70687 -2.19456
      CHANNELS 3 Zrotation Xrotation Yrotation
      JOINT lShin
      {
        OFFSET 0 -36.8199 0.73152
        CHANNELS 3 Zrotation Xrotation Yrotation
        JOINT lFoot
        {
          OFFSET -0.73152 -45.1104 -5.12064
          CHANNELS 3 Zrotation Xrotation Yrotation
          End Site
          {
            OFFSET 1.1221 -3.69964 12.103
          }
        }
      }
    }
  }
}
MOTION
Frames:	6
Frame Time:	0.03333
-3.1428 56.3816 -81.7931 -22.344807 -58.930476 21.014475 3.372872 12.532944 -10.165375 3.195879 -11.32031 28.54585 -0.160281 13.794928 14.1854 4.236827 -22.706829 15.259987 0.00151 -0.0 -0.00135 0.001469 0.0 0.000203 -7.69337 30.195569 9.06499 65.436734 -2.466659 28.798047 120.61698 34.234531 30.241658 -39.65562 25.855236 21.321732 -1.969427 1.931626 0.334795 -143.884057 -51.285588 119.104535 41.895281 -61.634783 2.09979 -19.620751 40.727622 16.062669 -175.016472 -48.72245 144.366208 0.677903 6.791836 1.354352 0.004682 0.914515 0.287059 10.685231 -6.733207 -0.88875 4.092491 11.761162 3.712658 7.452538 16.230529 4.181634 7.065872 28.528914 -8.373613 -2.790745 23.59809 -75.665993 154.406658 -72.817696 69.412756 7.873905 47.522099 -5.389054 167.523951 -5.199432 -89.835764 133.298514 9.155223 -65.380872 149.524133 -13.777444 -120.489938 163.056747 -18.499997 -119.536193 166.691035 -25.86008 -145.176181 5.870536 22.728385 -5.27061 145.108704 -0.791981 178.879382 -11.685261 21.549077 6.520432 150.650396 31.314915 146.420527 21.251574 -36.45315 22.463437 0.000699 0.000642 0.000315 -25.095069 -22.207601 -137.605863 -72.339579 -20.484117 57.883552 154.489095 -7.785803 -4.68722 -179.993727 75.75032 -0.006374 -135.365314 1.965811 -99.745385 -81.411304 -16.255951 21.802384 145.337304 28.064546 -77.682268
-3.1537999999999995 56.369899999999994 -82.0528 -22.263751 -59.182527 20.942602 2.176477 7.874531 163.262553 -4.1749 6.086013 -144.918268 -8.462524 31.078327 -123.371346 24.171918 35.393391 147.610627 -0.002228 0.0 -0.004661 0.003933 0.0 0.000414 -150.185799 21.477035 155.294696 -47.82512 1.027923 27.711777 -166.544612 -43.27271 -61.038834 -18.817858 -61.480591 -19.709919 170.915963 -25.541967 87.204342 78.918999 -76.86969 59.421158 25.1489 -43.897716 -5.34972 36.038843 -30.161432 -1.667271 2.781926 -8.422195 -1.392892 3.814697 -1.843879 -0.260025 -145.101486 -1.270116 -178.728642 -153.925116 -13.557079 -177.344831 21.834727 72.993833 12.753592 -11.421656 -25.728816 -12.151206 154.373005 3.279513 -160.329486 -147.304521 -24.997264 158.67406 179.637218 63.333718 -57.580166 -146.401276 -43.803227 -134.680953 167.630861 -5.306295 -89.842405 -69.569128 -66.369933 -53.182502 11.280344 15.865725 -7.377164 -179.430328 -35.265258 -106.13669 160.862939 -7.254367 -143.333124 27.011155 50.096963 -22.450004 0.002474 -0.319124 0.100232 -10.054208 4.027914 -0.451666 148.342608 22.752987 144.555639 -20.754088 54.736694 -6.23751 -179.998337 75.748747 -0.002045 144.236471 47.077077 -9.782338 -36.589549 65.23004 50.416992 89.270181 -51.015271 9.769661 -0.061962 -0.001013 -0.050191 72.374373 -44.756673 168.792708 90.898375 -8.798245 97.588389 -36.965457 10.470919 178.259545
-3.1697999999999995 56.3475 -82.3109 -22.179387 -59.394571 20.880872 3.330557 12.444397 -12.58999 3.554264 -11.081801 31.036053 10.170745 24.923875 104.910259 -31.170301 8.860721 -74.313359 -0.001288 -0.0 0.001207 -0.001288 -0.0 0.001207 -152.881559 10.803084 158.461452 -56.578724 22.164586 21.54531 -111.462606 30.364027 -77.724831 -166.302349 -50.921013 167.280849 -161.632671 0.667169 89.15968 100.687311 -60.204695 72.420273 -160.836215 -34.431922 122.709814 -163.28214 -23.184818 119.231713 -103.617029 58.586068 94.481169 178.748278 -51.325643 140.318019 -145.112951 3.134486 179.886627 9.795482 -2.091248 -9.254127 174.621572 86.337321 -132.979511 -14.898142 -29.965692 -15.577588 -3.260254 -26.656846 5.224493 102.300559 -18.889157 -170.327824 -11.091265 -29.00741 120.534727 -149.113115 -40.658248 -137.183285 127.800736 27.168586 -75.764109 147.253834 -14.844807 -73.055377 160.010401 -33.001155 -122.698403 159.187384 -14.590979 -119.524035 12.641834 28.66428 -8.985073 169.41938 -24.010648 -144.303851 -0.00436 1.202405 -0.37792 -9.251015 -64.278175 9.72163 61.593344 -51.390605 60.196555 159.285423 54.749791 148.781994 179.969992 75.749603 0.023997 143.832352 46.814972 3.470187 4.123206 71.717756 39.730234 157.123933 -66.433826 71.823828 179.983783 75.74838 0.014502 -137.272034 2.381396 87.453871 77.957198 5.533857 -118.586543 -69.041201 -57.166216 25.116199
-3.1853 56.301100000000005 -82.56790000000001 -22.095565 -59.577203 20.831165 2.091232 12.35531 15.205551 -0.916009 -11.665017 2.98847 -8.732767 17.373499 -36.026315 29.358376 -8.409824 68.161526 -0.003073 -0.0 0.001419 0.002173 -0.0 -0.004506 -156.458484 -10.254963 163.217679 140.224819 -13.50757 178.446305 -130.128469 -40.137128 56.491379 -158.084739 -1.554711 148.292038 7.51105 -7.502829 -0.669406 -124.18494 -10.943406 112.090147 176.463905 -61.648999 114.609596 -44.922093 54.121784 34.617521 -155.099191 9.223089 140.067077 -177.19907 -43.204694 142.218058 0.00351 2.242848 0.703464 -156.065074 -8.907479 172.920205 32.039154 83.333736 6.214328 -96.325374 -50.739147 -94.509135 155.211942 -1.650583 -161.438415 58.054218 -22.99504 27.290521 -4.993199 -12.14539 123.616472 -145.252175 -44.868057 -133.759608 -166.988876 -28.682746 -85.925919 137.16595 18.405071 -75.182218 -3.776022 -6.368144 1.984704 160.416262 -13.223603 -110.242867 25.243108 44.161844 -19.907354 -20.553246 -47.074539 -0.94924 0.039044 5.378242 -1.691919 -9.828914 0.914495 -0.034559 148.717076 24.096261 144.866178 5.452121 -16.186806 8.20834 -0.001198 -0.000844 -0.001903 -25.32816 -21.745408 -76.4562 -70.807804 37.49506 21.288827 99.974067 14.834147 6.124627 175.18493 75.710038 3.743695 -135.835907 1.674219 91.333954 88.375864 -6.168233 33.76384 17.369757 73.626856 -110.877339
-3.1931000000000003 56.2438 -82.8223 -21.984431 -59.744175 20.773724 1.329735 7.965588 147.487985 -6.252575 4.463003 -128.93558 -5.745113 15.23245 -16.206615 21.597708 -16.724129 48.778405 -0.001605 0.0 -0.003386 -0.001551 0.0 -0.004972 -62.506731 67.648962 65.413326 46.982989 -11.771422 63.641454 -179.690211 11.472143 31.8165 -131.270632 38.310667 117.702714 -163.586223 -1.264774 89.449508 -169.941893 -9.986188 85.857302 -18.528393 23.520526 12.873555 2.494442 8.728151 0.760949 171.03883 -68.095829 136.046641 -69.203154 63.75168 61.642795 -0.655981 -13.945375 -4.48796 -144.474398 52.261898 160.058023 -50.969618 -49.692427 -49.683136 -72.553105 -54.356314 -73.216666 138.996493 45.648924 -143.18755 49.348798 -17.145611 -20.674144 160.640364 -1.38741 90.367295 4.625862 39.394445 -4.600791 26.404282 22.320814 -9.136294 29.037536 14.435798 -35.043228 157.307149 -28.180288 -122.486783 53.274036 56.461612 -39.06092 163.402571 -15.303304 -144.35362 169.655737 -23.848419 -143.914318 145.034766 -4.285049 177.779694 129.864652 -67.712159 152.11706 155.178404 49.108383 149.506808 142.0065 -4.713694 137.21146 -179.998266 75.749901 -0.000652 145.415976 44.90503 -98.343296 -80.659033 -6.561331 -156.200595 75.443645 64.798209 -179.409859 179.997684 75.74827 0.002006 -134.552117 2.279891 -92.85996 -87.19934 1.879045 -157.736765 -41.137057 -52.481159 -143.253225
-3.189 56.1824 -83.0698 -21.800027 -59.891023 20.678764 3.3918 12.100057 -21.835789 4.887614 -10.25387 40.473827 1.654937 14.367844 24.00551 -1.69102 -22.980814 4.403975 -0.000102 0.0 -0.003768 -0.000102 0.0 -0.003768 1.939263 -13.625762 -2.800217 -108.710045 -12.438443 -172.248707 -36.130887 54.923946 -115.488458 -151.173244 15.08551 139.661629 179.354858 -18.074271 89.163558 -43.645037 -17.554626 2.537713 -122.107592 24.426012 103.067305 3.772857 6.257599 -6.710393 -142.399727 33.858235 130.276013 8.080242 -14.206068 -0.994158 0.005459 1.005655 0.315745 10.959222 -12.224386 -1.530518 -154.207634 45.284311 -148.937528 38.98394 77.742757 -4.112412 156.590401 -11.27529 -163.418353 43.913137 -1.57708 31.528764 -127.147084 5.075175 65.588947 166.927029 63.115823 -148.221542 -6.071018 -6.059774 0.616693 159.431145 -74.397821 -122.261007 149.247492 -13.270281 -120.385948 -178.460332 -47.961018 -113.018489 33.273571 50.126936 -27.261071 4.093984 19.700272 -4.034084 145.118256 -0.065196 179.1083 111.522523 -74.596319 133.2398 130.806772 -20.864624 128.388315 -26.202907 64.786805 -5.31894 -0.01109 -0.00014 -0.009189 -27.261261 -21.368214 9.535012 74.556489 52.612109 179.475256 156.145033 -79.230306 -117.77725 0.003472 -0.000141 0.002136 71.943259 -43.811216 139.56571 80.283334 24.564319 -165.384314 6.190995 -1.53865 88.224905
